<svg xmlns="http://www.w3.org/2000/svg" x="0px" y="0px" width="28" height="28" viewBox="0 0 128 128"> <path fill="white" d="M64,1C29.26,1,1,29.26,1,64c0,8.87,1.85,17.32,5.18,24.99c0.06,0.16,0.13,0.32,0.21,0.47C16.19,111.55,38.32,127,64,127 c34.74,0,63-28.26,63-63S98.74,1,64,1z M64,121c-21.67,0-40.55-12.15-50.19-30H30c1.66,0,3-1.34,3-3V50.36l28.85,29.53 c1.13,1.16,3.16,1.16,4.29,0L95,50.36V88c0,1.66,1.34,3,3,3h16.19C104.55,108.85,85.67,121,64,121z M116.97,85H101V43 c0-1.22-0.74-2.32-1.87-2.78c-1.13-0.46-2.42-0.19-3.28,0.68L64,73.51L32.15,40.9c-0.85-0.87-2.15-1.14-3.28-0.68 C27.74,40.68,27,41.78,27,43v42H11.03C8.44,78.5,7,71.42,7,64C7,32.57,32.57,7,64,7s57,25.57,57,57 C121,71.42,119.56,78.5,116.97,85z"></path> </svg>