<svg xmlns="http://www.w3.org/2000/svg" x="0px" y="0px" width="64" height="64" viewBox="0 0 126 126">
<path fill="white" d="M 63 0 C 28.26 0 0 28.26 0 63 C 0 97.74 28.26 126 63 126 C 97.74 126 126 97.74 126 63 C 126 28.26 97.74 0 63 0 z M 63 6 C 94.43 6 120 31.57 120 63 C 120 94.43 94.43 120 63 120 C 31.57 120 6 94.43 6 63 C 6 31.57 31.57 6 63 6 z M 62.998047 19.992188 C 62.619297 19.992188 62.240859 20.065938 61.880859 20.210938 L 26.880859 34.210938 C 25.750859 34.670938 25 35.77 25 37 L 25 87 C 25 88.23 25.750625 89.329062 26.890625 89.789062 L 61.890625 103.78906 C 62.250625 103.92906 62.63 104 63 104 C 63.59 104 64.179688 103.83047 64.679688 103.48047 C 65.509687 102.93047 66 102 66 101 L 66 53.029297 L 99.109375 39.779297 C 100.24938 39.319297 101 38.220234 101 36.990234 C 101 35.760234 100.24937 34.670938 99.109375 34.210938 L 64.109375 20.210938 C 63.754375 20.065938 63.376797 19.992188 62.998047 19.992188 z M 63 26.230469 L 89.919922 37 L 61.890625 48.210938 C 60.750625 48.670938 60 49.77 60 51 L 60 96.570312 L 31 84.970703 L 31 39.029297 L 63 26.230469 z M 98 48.919922 C 96.34 48.919922 95 50.259922 95 51.919922 L 95 82.820312 L 77.960938 77.099609 C 76.390938 76.569609 74.690156 77.420234 74.160156 78.990234 C 73.630156 80.560234 74.480781 82.259062 76.050781 82.789062 L 97.050781 89.839844 C 97.360781 89.949844 97.68 90 98 90 C 98.62 90 99.23 89.809453 99.75 89.439453 C 100.53 88.879453 101 87.97 101 87 L 101 51.919922 C 101 50.269922 99.66 48.919922 98 48.919922 z"></path>
</svg>