
<svg id="Layer_1" data-name="Layer 1" xmlns="http://www.w3.org/2000/svg" viewBox="0 0 250 57">
  <g>
    <path className="cls-1" fill="white" d="M60.02,21.1c1.08-.58,2.32-.86,3.71-.86,1.66,0,3.16.42,4.5,1.26,1.34.84,2.41,2.04,3.19,3.6.78,1.56,1.17,3.37,1.17,5.44s-.39,3.88-1.17,5.45c-.78,1.57-1.84,2.78-3.19,3.64-1.34.85-2.84,1.28-4.5,1.28-1.42,0-2.65-.28-3.71-.85-1.06-.56-1.88-1.31-2.48-2.25v2.81h-6.16V13.97h6.16v9.4c.58-.94,1.4-1.69,2.48-2.27ZM65.04,26.92c-.85-.88-1.9-1.31-3.15-1.31s-2.26.44-3.11,1.33c-.85.89-1.28,2.1-1.28,3.64s.43,2.75,1.28,3.64c.85.89,1.89,1.33,3.11,1.33s2.27-.45,3.13-1.35c.86-.9,1.3-2.12,1.3-3.65s-.43-2.74-1.28-3.62Z"/>
    <path className="cls-1" fill="white" d="M80.07,13.97v26.64h-6.16V13.97h6.16Z"/>
    <path className="cls-1" fill="white" d="M86.46,39.64c-1.57-.84-2.81-2.04-3.71-3.6-.9-1.56-1.35-3.38-1.35-5.47s.46-3.88,1.37-5.45c.91-1.57,2.16-2.78,3.74-3.62,1.58-.84,3.36-1.26,5.33-1.26s3.74.42,5.33,1.26c1.58.84,2.83,2.05,3.74,3.62.91,1.57,1.37,3.39,1.37,5.45s-.46,3.88-1.39,5.45c-.92,1.57-2.18,2.78-3.78,3.62s-3.38,1.26-5.35,1.26-3.74-.42-5.31-1.26ZM94.78,34.28c.83-.86,1.24-2.1,1.24-3.71s-.4-2.84-1.21-3.71-1.79-1.3-2.97-1.3-2.2.43-2.99,1.28c-.79.85-1.19,2.09-1.19,3.73s.39,2.84,1.17,3.71c.78.86,1.76,1.3,2.93,1.3s2.18-.43,3.01-1.3Z"/>
    <path className="cls-1" fill="white" d="M103.7,25.1c.85-1.56,2.04-2.76,3.56-3.6,1.52-.84,3.27-1.26,5.24-1.26,2.52,0,4.63.66,6.32,1.98,1.69,1.32,2.8,3.18,3.33,5.58h-6.55c-.55-1.54-1.62-2.3-3.2-2.3-1.13,0-2.03.44-2.7,1.31s-1.01,2.13-1.01,3.76.34,2.89,1.01,3.76c.67.88,1.57,1.31,2.7,1.31,1.58,0,2.65-.77,3.2-2.3h6.55c-.53,2.35-1.64,4.2-3.35,5.54-1.7,1.34-3.8,2.02-6.3,2.02-1.97,0-3.71-.42-5.24-1.26-1.53-.84-2.71-2.04-3.56-3.6-.85-1.56-1.28-3.38-1.28-5.47s.43-3.91,1.28-5.47Z"/>
    <path className="cls-1" fill="white" d="M135.8,40.61l-6.12-8.42v8.42h-6.16V13.97h6.16v14.72l6.08-8.17h7.6l-8.35,10.08,8.42,10.01h-7.63Z"/>
    <path className="cls-1" fill="white" d="M152.5,21.1c1.08-.58,2.32-.86,3.71-.86,1.66,0,3.16.42,4.5,1.26,1.34.84,2.41,2.04,3.19,3.6.78,1.56,1.17,3.37,1.17,5.44s-.39,3.88-1.17,5.45c-.78,1.57-1.84,2.78-3.19,3.64-1.34.85-2.84,1.28-4.5,1.28-1.42,0-2.65-.28-3.71-.85-1.06-.56-1.88-1.31-2.48-2.25v2.81h-6.16V13.97h6.16v9.4c.58-.94,1.4-1.69,2.48-2.27ZM157.52,26.92c-.85-.88-1.9-1.31-3.15-1.31s-2.26.44-3.11,1.33c-.85.89-1.28,2.1-1.28,3.64s.43,2.75,1.28,3.64c.85.89,1.89,1.33,3.11,1.33s2.27-.45,3.13-1.35c.86-.9,1.3-2.12,1.3-3.65s-.43-2.74-1.28-3.62Z"/>
    <path className="cls-1" fill="white" d="M170.23,39.64c-1.57-.84-2.81-2.04-3.71-3.6-.9-1.56-1.35-3.38-1.35-5.47s.46-3.88,1.37-5.45c.91-1.57,2.16-2.78,3.74-3.62,1.58-.84,3.36-1.26,5.33-1.26s3.74.42,5.33,1.26c1.58.84,2.83,2.05,3.74,3.62.91,1.57,1.37,3.39,1.37,5.45s-.46,3.88-1.39,5.45-2.18,2.78-3.78,3.62-3.38,1.26-5.35,1.26-3.74-.42-5.31-1.26ZM178.55,34.28c.83-.86,1.24-2.1,1.24-3.71s-.4-2.84-1.21-3.71c-.8-.86-1.79-1.3-2.97-1.3s-2.2.43-2.99,1.28c-.79.85-1.19,2.09-1.19,3.73s.39,2.84,1.17,3.71c.78.86,1.76,1.3,2.93,1.3s2.18-.43,3.01-1.3Z"/>
    <path className="cls-1" fill="white" d="M187.37,25.1c.78-1.56,1.84-2.76,3.19-3.6,1.34-.84,2.84-1.26,4.5-1.26,1.42,0,2.66.29,3.73.86,1.07.58,1.89,1.33,2.47,2.27v-2.84h6.16v20.09h-6.16v-2.84c-.6.94-1.43,1.69-2.5,2.27s-2.31.86-3.73.86c-1.63,0-3.12-.43-4.46-1.28-1.34-.85-2.41-2.06-3.19-3.64-.78-1.57-1.17-3.39-1.17-5.45s.39-3.88,1.17-5.44ZM199.97,26.93c-.85-.89-1.89-1.33-3.11-1.33s-2.26.44-3.11,1.31c-.85.88-1.28,2.08-1.28,3.62s.43,2.75,1.28,3.65c.85.9,1.89,1.35,3.11,1.35s2.26-.44,3.11-1.33c.85-.89,1.28-2.1,1.28-3.64s-.43-2.75-1.28-3.64Z"/>
    <path className="cls-1" fill="white" d="M218.81,21.26c1.08-.64,2.28-.95,3.6-.95v6.52h-1.69c-1.54,0-2.69.33-3.46.99-.77.66-1.15,1.82-1.15,3.47v9.32h-6.16v-20.09h6.16v3.35c.72-1.1,1.62-1.97,2.7-2.61Z"/>
    <path className="cls-1" fill="white" d="M223.4,25.1c.78-1.56,1.84-2.76,3.19-3.6,1.34-.84,2.84-1.26,4.5-1.26,1.32,0,2.53.28,3.62.83,1.09.55,1.95,1.3,2.57,2.23v-9.32h6.16v26.64h-6.16v-2.88c-.58.96-1.4,1.73-2.47,2.3-1.07.58-2.31.86-3.73.86-1.66,0-3.16-.43-4.5-1.28-1.34-.85-2.41-2.06-3.19-3.64-.78-1.57-1.17-3.39-1.17-5.45s.39-3.88,1.17-5.44ZM236,26.93c-.85-.89-1.89-1.33-3.11-1.33s-2.26.44-3.11,1.31c-.85.88-1.28,2.08-1.28,3.62s.43,2.75,1.28,3.65c.85.9,1.89,1.35,3.11,1.35s2.26-.44,3.11-1.33c.85-.89,1.28-2.1,1.28-3.64s-.43-2.75-1.28-3.64Z"/>
  </g>
  <g>
    <path className="cls-1" fill="#AC6AFF" d="M16.69,29.64c1.5,0,3.01,0,4.51,0,.25,0,.39.08.51.3,1.5,2.61,3.01,5.22,4.52,7.83.13.22.12.38,0,.59-1.51,2.61-3.02,5.22-4.52,7.83-.12.22-.26.31-.51.3-3.02,0-6.04,0-9.06,0-.24,0-.37-.07-.49-.28-1.51-2.64-3.03-5.27-4.56-7.89-.11-.19-.11-.34,0-.53,1.53-2.63,3.04-5.26,4.56-7.89.11-.19.23-.27.46-.26,1.53.01,3.06,0,4.58,0ZM16.67,45.44c1.31,0,2.62,0,3.92,0,.25,0,.39-.08.52-.3,1.3-2.28,2.62-4.55,3.94-6.81.12-.21.11-.36,0-.56-1.32-2.27-2.63-4.54-3.93-6.82-.13-.23-.27-.29-.52-.29-2.62,0-5.23,0-7.85,0-.25,0-.39.07-.51.29-1.29,2.26-2.59,4.51-3.9,6.75-.15.25-.15.44,0,.69,1.3,2.23,2.6,4.47,3.88,6.72.14.25.3.33.58.32,1.3-.01,2.59,0,3.89,0Z"/>
    <path className="cls-1" fill="#AC6AFF" d="M32.94,20.69c1.5,0,3.01,0,4.51,0,.25,0,.39.06.52.29,1.5,2.63,3.02,5.25,4.54,7.86.12.2.13.35,0,.56-1.52,2.62-3.04,5.24-4.54,7.86-.12.22-.25.3-.51.3-3.02,0-6.04,0-9.06,0-.24,0-.37-.07-.49-.28-1.51-2.64-3.03-5.27-4.56-7.89-.11-.19-.12-.33,0-.53,1.53-2.63,3.04-5.26,4.56-7.9.12-.21.25-.28.49-.28,1.52.01,3.03,0,4.55,0ZM32.93,21.73c-1.32,0-2.64,0-3.96,0-.23,0-.35.07-.46.26-1.32,2.3-2.64,4.59-3.97,6.88-.11.2-.1.34,0,.53,1.32,2.28,2.64,4.56,3.95,6.84.12.2.25.29.49.29,2.63,0,5.25,0,7.88,0,.24,0,.37-.08.49-.29,1.31-2.28,2.63-4.57,3.95-6.84.11-.19.12-.34,0-.53-1.33-2.29-2.65-4.58-3.97-6.88-.11-.19-.24-.26-.46-.26-1.32.01-2.64,0-3.96,0Z"/>
    <path className="cls-1" fill="#AC6AFF" d="M16.66,11.3c1.52,0,3.03,0,4.55,0,.24,0,.37.07.49.28,1.51,2.64,3.03,5.27,4.55,7.89.12.2.1.34,0,.53-1.52,2.63-3.04,5.26-4.55,7.89-.12.21-.25.28-.49.28-3.02,0-6.04,0-9.05,0-.26,0-.39-.09-.51-.31-1.51-2.62-3.02-5.24-4.54-7.86-.12-.21-.11-.36,0-.56,1.51-2.6,3.02-5.21,4.52-7.83.13-.23.27-.32.54-.32,1.5.02,3.01,0,4.51,0ZM16.68,12.33c-1.32,0-2.64,0-3.96,0-.24,0-.37.08-.48.28-1.3,2.28-2.62,4.55-3.94,6.82-.13.22-.12.38,0,.6,1.31,2.26,2.62,4.52,3.91,6.79.13.23.28.31.55.31,2.6-.01,5.21,0,7.81,0,.25,0,.39-.06.52-.29,1.31-2.29,2.63-4.57,3.96-6.85.12-.2.1-.33,0-.52-1.32-2.28-2.64-4.56-3.95-6.85-.12-.21-.25-.28-.49-.28-1.31.01-2.62,0-3.92,0Z"/>
  </g>
</svg>