<?xml version="1.0" encoding="UTF-8"?>
<svg id="Layer_1" data-name="Layer 1" xmlns="http://www.w3.org/2000/svg" viewBox="0 0 57 57">
  <defs>
    <style>
      .cls-1 {
        fill: #fff;
        stroke-width: 0px;
      }
    </style>
  </defs>
  <path class="cls-1" d="M18.86,29.81c1.84,0,3.68,0,5.52,0,.31,0,.48.1.63.37,1.84,3.2,3.68,6.4,5.54,9.59.16.27.15.46,0,.73-1.86,3.19-3.7,6.39-5.54,9.59-.15.27-.32.37-.63.37-3.7-.01-7.4-.01-11.09,0-.29,0-.46-.08-.61-.34-1.85-3.23-3.71-6.45-5.58-9.67-.14-.24-.13-.41,0-.65,1.87-3.22,3.73-6.44,5.58-9.67.14-.24.29-.33.56-.32,1.87.01,3.74,0,5.61,0ZM18.84,49.16c1.6,0,3.2,0,4.81,0,.31,0,.48-.1.63-.37,1.6-2.79,3.2-5.57,4.82-8.34.15-.26.13-.44,0-.68-1.62-2.78-3.23-5.56-4.82-8.35-.16-.28-.33-.36-.63-.36-3.2,0-6.41.01-9.61,0-.31,0-.48.09-.63.36-1.58,2.76-3.17,5.52-4.78,8.27-.18.31-.19.54,0,.85,1.6,2.74,3.18,5.48,4.75,8.23.17.31.37.4.71.4,1.59-.02,3.17,0,4.76,0Z"/>
  <path class="cls-1" d="M38.77,18.85c1.84,0,3.68,0,5.52,0,.3,0,.48.08.64.35,1.84,3.22,3.7,6.43,5.56,9.63.14.25.16.43,0,.68-1.86,3.2-3.72,6.41-5.56,9.63-.15.27-.31.37-.63.37-3.7-.01-7.4-.01-11.09,0-.29,0-.45-.09-.6-.34-1.85-3.23-3.71-6.45-5.58-9.67-.14-.23-.15-.4,0-.64,1.87-3.22,3.73-6.44,5.58-9.67.14-.25.3-.35.6-.34,1.86.02,3.71,0,5.57,0ZM38.76,20.11c-1.62,0-3.23,0-4.85,0-.28,0-.43.09-.56.32-1.61,2.81-3.23,5.62-4.86,8.42-.14.24-.13.42,0,.65,1.62,2.79,3.24,5.58,4.84,8.38.14.25.3.35.6.35,3.22-.01,6.43-.01,9.65,0,.3,0,.45-.1.6-.35,1.61-2.8,3.22-5.59,4.84-8.38.14-.23.14-.41,0-.65-1.63-2.8-3.25-5.61-4.86-8.42-.14-.24-.29-.32-.56-.32-1.62.01-3.23,0-4.85,0Z"/>
  <path class="cls-1" d="M18.83,7.35c1.86,0,3.71,0,5.57,0,.29,0,.45.09.6.34,1.85,3.23,3.71,6.45,5.58,9.67.14.24.13.41-.01.65-1.87,3.22-3.73,6.44-5.58,9.67-.15.26-.31.34-.6.34-3.7,0-7.39-.01-11.09,0-.32,0-.48-.12-.63-.38-1.85-3.21-3.7-6.42-5.56-9.62-.15-.26-.13-.44.01-.69,1.85-3.19,3.7-6.39,5.54-9.59.16-.28.32-.39.66-.39,1.84.02,3.68,0,5.52,0ZM18.86,8.61c-1.62,0-3.23,0-4.85,0-.3,0-.45.1-.59.35-1.6,2.79-3.2,5.57-4.82,8.35-.16.27-.15.46,0,.73,1.61,2.77,3.21,5.54,4.79,8.31.16.28.35.38.67.38,3.19-.01,6.38-.01,9.57,0,.3,0,.48-.08.64-.36,1.6-2.8,3.22-5.6,4.84-8.39.14-.24.13-.41-.01-.64-1.62-2.79-3.24-5.59-4.84-8.39-.15-.25-.3-.35-.6-.34-1.6.02-3.2,0-4.81,0Z"/>
</svg>